# xmcd
#
# Track frame offsets:
#	150
#	16018
#	28232
#	40364
#	53590
#	64064
#	78714
#	94125
#	104812
#	119526
#
# Disc length: 1755 seconds
#
# Revision: 0
# Processed by: cddbd v1.5.2PL0 Copyright (c) Steve Scherf et al.
# Submitted via: EasyCDDAExtractor 16.0.6.1
#
DISCID=8606d90a
DTITLE=Συλλογικός δίσκος - Λαϊκό τραγούδι 1954-1967, 1964-2
DYEAR=2008
DGENRE=Λαϊκή
TTITLE0=Γαβαλάς Πάνος-Κούρτη Ρία - Όνειρο δεμένο [Σταύρος Ξαρχάκος-Βαγγέλης Γκ
TTITLE0=ούφας]
TTITLE1=Γαβαλάς Πάνος - Τα χρόνια δεν έχουν καμμιά σημασία [Στέλ. Χρυσίνης-Σπ.
TTITLE1=Κεφαλόπουλος]
TTITLE2=Μοσχολιού Βίκυ - Όταν γυρίσεις [Αντώνης Ρεπάνης-Νίκος Γκούμας]
TTITLE3=Καζαντζίδης Στέλιος-Μαρινέλλα - Όση γλύκα έχουνε τα χείλη σου [Απόστολ
TTITLE3=ος Καλδάρας]
TTITLE4=Καζαντζίδης Στέλιος-Μαρινέλλα - Στην πόρτα σου [Γιώργος Κατσαρός-Πυθαγ
TTITLE4=όρας]
TTITLE5=Ζαγοραίος Σπύρος-Ζαγοραίου Ζωή - Να πέσουν χίλιοι κεραυνοί [Μπάμπης Μπ
TTITLE5=ακάλης-Δημ. Τζάρας]
TTITLE6=Γαβαράς Πάνος - Ρίχνω τα ζάρια [Γιώργος Κατσαρός-Πυθαγόρας]
TTITLE7=Νικολαϊδης Απόστολος - Εσένα έχω κι αυτό με φτάνει [Μανώλης Χιώτης-Κώσ
TTITLE7=τας Μάνεσης]
TTITLE8=Πάνου Πόλυ - Της φτώχειας τα παιδιά [Γιάννης Καραμπεσίνης]
TTITLE9=Καζαντζίδης Στέλιος - Με ξυπνάς χαράματα [Μπάμπης Μπακάλης-Αθ. Παπουτσ
TTITLE9=ής]
EXTD=
EXTT0=
EXTT1=
EXTT2=
EXTT3=
EXTT4=
EXTT5=
EXTT6=
EXTT7=
EXTT8=
EXTT9=
PLAYORDER=
